<svg xmlns="http://www.w3.org/2000/svg" width="31" height="31" viewBox="0 0 31 31">
  <path fill="#222222" fill-rule="evenodd" d="M7.80952381,23 C9.83456789,23 12,25.2048036 12,27.2666667 C12,29.262018 10.4625803,30.891757 8.52806616,30.9948251 L8.33333333,31 L1,31 L1.38412126,30.5761989 C2.1117717,29.7569955 3.61904762,27.9746302 3.61904762,27.2666667 C3.61904762,25.2048036 5.78447973,23 7.80952381,23 Z M30.7087053,3.45520349 L24.7912947,14.9610429 C23.5258476,17.4215838 20.5315939,20.4785023 18.0976239,21.7920009 L13,24.5429479 L9,21.3490444 L11.6826488,14.4847371 C12.6863442,11.9165019 15.4590166,8.74607254 17.8761806,7.40305457 L28.6238194,1.43148134 C31.0407172,0.0886112772 31.9740979,0.994768575 30.7087053,3.45520349 Z" transform="translate(-1)"/>
</svg>
