<svg xmlns="http://www.w3.org/2000/svg" width="16" height="16" viewBox="0 0 16 16"><g fill="#222" fill-rule="evenodd" transform="translate(1 1)"><path d="M5.50016487,3 C4.67164669,3 4,3.66831553 4,4.50473881 L4,11 L1.0093689,11 C0.451909848,11 0,10.555163 0,10.0044225 L0,0.995577499 C0,0.445735229 0.446311399,0 0.997544646,0 L8.00245535,0 C8.55338405,0 9,0.442660332 9,0.998956561 L9,3 L5.50016487,3 Z"/><path d="M5,4.99539757 C5,4.44565467 5.4463114,4 5.99754465,4 L13.0024554,4 C13.553384,4 14,4.4556644 14,4.99539757 L14,13.0046024 C14,13.5543453 13.5536886,14 13.0024554,14 L5.99754465,14 C5.44661595,14 5,13.5443356 5,13.0046024 L5,4.99539757 Z"/></g></svg>