<svg xmlns="http://www.w3.org/2000/svg" width="16" height="16" viewBox="0 0 16 16"><g fill="none" fill-rule="evenodd"><path fill="#222" d="M13,3 C13.5522847,3 14,3.44771525 14,4 L14,14 C14,14.5522847 13.5522847,15 13,15 L3,15 C2.44771525,15 2,14.5522847 2,14 L2,4 C2,3.44771525 2.44771525,3 3,3 L4,3 L4,6 L12,6 L12,3 L13,3 Z"/><path fill="#222" d="M8,1 C8.55228475,1 9,1.44771525 9,2 L9,2 L9,3 L11,3 L11,5 L5,5 L5,3 L7,3 L7,2 L7.00672773,1.88337887 C7.06449284,1.38604019 7.48716416,1 8,1 Z"/></g></svg>