<svg xmlns="http://www.w3.org/2000/svg" width="50" height="50" viewBox="0 0 50 50"><g fill="none" fill-rule="evenodd"><path fill="#F6DE4E" d="M15.8847267,1.29388111 C18.9404008,4.79236694 21.5205605,6.71945288 23.6252058,7.07513893 C25.1379196,7.33078827 33.4301245,3.97151955 34.5,3.5 C36.3324557,8.02546089 37.7331318,11.7797731 39.4651024,13.0121544 C41.197073,14.2445358 44.4687762,14.961722 49.2802119,15.1637132 C46.3931863,19.5326426 44.8239321,22.9444886 44.5724496,25.3992512 C44.320967,27.8540138 45.2387126,30.80165 47.3256863,34.2421598 C43.1583335,35.8094274 40.4120242,37.4491794 39.0867582,39.1614157 C38.573752,39.8242169 37.4367316,43.2017053 35.6756972,49.2938811 C31.9365877,46.9375899 28.8843122,45.6699171 26.5188706,45.4908627 C24.153429,45.3118082 20.9083648,46.1027976 16.783678,47.8638309 C15.5745325,43.8084218 14.1514106,41.0786387 12.5143123,39.6744815 C11.8516772,39.1061321 8.44031044,37.6893213 2.28021194,35.4240491 C4.8187295,31.3556188 6.13529544,28.0526993 6.22990978,25.5152906 C6.32452412,22.977882 5.26711497,19.3306212 3.05768234,14.5735083 C7.37980094,14.1942358 10.2657739,13.2541084 11.7156012,11.7531261 C12.5750227,10.8633813 15.5,5 15.8847267,1.29388111 Z"/><path fill="#BF3826" d="M7.2502633,5.07532256 C11.4273916,7.22716642 14.5727572,8.19248991 16.5883633,7.59749172 C22,6 24,3.5 24.9956024,1 C28.4800885,4.59801 31.2547065,6.65009837 33.3194563,7.15626511 C35.3842061,7.66243185 38.6345591,7.08734567 43.0705153,5.43100656 C42.2206094,10.6932452 42.1771203,14.5394342 42.9400481,16.9695735 C43.7029759,19.3997129 45.7229599,21.8492154 49,24.3180811 C45.8608686,27.4088712 45.0571457,27.3188939 43.5285729,32.1594469 C42,37 44.4541765,42.769107 44.5300567,43.1018926 C40.1952936,42.2983819 36.9213996,42.2658731 34.7083747,43.0043664 C32.4953498,43.7428596 29.8776717,45.7414042 26.8553406,49 C24.1246346,45.6093775 21.6213091,43.8308104 19.6869787,42.8552086 C17.8956596,41.9517362 14.2366016,41.9154029 8.70980466,42.7462086 C9.36555824,37.9035109 9.2243123,34.2579413 8.28606685,31.8094998 C7.3478214,29.3610582 4.91913245,26.3001362 1,22.6267337 C4.75856739,20.605813 7.24174873,18.6755619 7.69754211,16.6196264 C8.5,13 8.5,8.5 7.2502633,5.07532256 Z"/><path fill="#F6DE4E" fill-rule="nonzero" d="M9.04296875 4.3359375C9.04296875 5.0390625 8.88997396 5.72916667 8.58398438 6.40625 8.27799479 7.08333333 7.87109375 7.69205729 7.36328125 8.23242187 6.85546875 8.77278646 6.27604167 9.21549479 5.625 9.56054687 4.97395833 9.90559896 4.30338542 10.0976562 3.61328125 10.1367187 3.60026042 10.3710937 3.59049479 10.6673177 3.58398438 11.0253906 3.57747396 11.3834635 3.5546875 11.7578125 3.515625 12.1484375 3.4765625 12.5390625 3.42122396 12.9296875 3.34960938 13.3203125 3.27799479 13.7109375 3.17382813 14.0625 3.03710938 14.375 2.90039063 14.6875 2.72460938 14.9414062 2.50976563 15.1367187 2.29492188 15.3320312 2.03125 15.4296875 1.71875 15.4296875 1.35416667 15.4296875 1.06445313 15.3092448.849609375 15.0683594.634765625 14.827474.472005208 14.5377604.361328125 14.1992187.250651042 13.8606771.17578125 13.5058594.13671875 13.1347656.09765625 12.7636719.0716145833 12.4479167.05859375 12.1875.0325520833 11.8098958.0162760417 11.4388021.009765625 11.0742187.00325520833 10.7096354 3.31647755e-15 10.3385417 3.31647755e-15 9.9609375 3.31647755e-15 9.79166667 3.31647755e-15 9.47591146 3.31647755e-15 9.01367187 3.31647755e-15 8.55143229.00325520833 8.02408854.009765625 7.43164062.0162760417 6.83919271.0260416667 6.22070312.0390625 5.57617187.0520833333 4.93164062.0716145833 4.33268229.09765625 3.77929687.123697917 3.22591146.152994792 2.75390625.185546875 2.36328125.218098958 1.97265625.260416667 1.74479167.3125 1.6796875.325520833 1.66666667.364583333 1.63736979.4296875 1.59179687.494791667 1.54622396.56640625 1.50065104.64453125 1.45507812.72265625 1.40950521.794270833 1.3671875.859375 1.328125.924479167 1.2890625.970052083 1.26302083.99609375 1.25 1.59505208.911458333 2.25260417.618489583 2.96875.37109375 3.68489583.123697917 4.39453125-2.0048252e-14 5.09765625-2.0048252e-14 5.69661458-2.0048252e-14 6.24023438.120442708 6.72851563.361328125 7.21679688.602213542 7.63346354.921223958 7.97851563 1.31835937 8.32356771 1.71549479 8.58723958 2.17773437 8.76953125 2.70507812 8.95182292 3.23242187 9.04296875 3.77604167 9.04296875 4.3359375ZM5.6640625 4.78515625C5.6640625 4.52473958 5.60221354 4.296875 5.47851563 4.1015625 5.35481771 3.90625 5.14973958 3.80859375 4.86328125 3.80859375 4.61588542 3.80859375 4.36848958 3.85742187 4.12109375 3.95507812 3.87369792 4.05273437 3.64583333 4.15364583 3.4375 4.2578125 3.4765625 4.71354167 3.51236979 5.15625 3.54492188 5.5859375 3.57747396 6.015625 3.58072917 6.45833333 3.5546875 6.9140625 3.76302083 6.80989583 3.99088542 6.68945312 4.23828125 6.55273437 4.48567708 6.41601562 4.71354167 6.26302083 4.921875 6.09375 5.13020833 5.92447917 5.30598958 5.73242187 5.44921875 5.51757812 5.59244792 5.30273437 5.6640625 5.05859375 5.6640625 4.78515625ZM13.984375 15.4492187C13.1901042 15.4492187 12.5 15.250651 11.9140625 14.8535156 11.328125 14.4563802 10.843099 13.922526 10.4589844 13.2519531 10.0748698 12.5813802 9.78841146 11.8033854 9.59960938 10.9179687 9.41080729 10.0325521 9.31640625 9.1015625 9.31640625 8.125 9.31640625 7.21354167 9.41731771 6.2890625 9.61914063 5.3515625 9.82096354 4.4140625 10.1302083 3.56770833 10.546875 2.8125 10.9635417 2.05729167 11.4908854 1.43880208 12.1289063.95703125 12.7669271.475260417 13.5286458.234375 14.4140625.234375 15.2734375.234375 15.9928385.465494792 16.5722656.927734375 17.1516927 1.38997396 17.6139323 1.98893229 17.9589844 2.72460937 18.3040365 3.46028646 18.5514323 4.28385417 18.7011719 5.1953125 18.8509115 6.10677083 18.9257812 7.01822917 18.9257812 7.9296875 18.9257812 8.9453125 18.8248698 9.90559896 18.6230469 10.8105469 18.421224 11.7154948 18.1152344 12.5130208 17.7050781 13.203125 17.2949219 13.8932292 16.780599 14.4401042 16.1621094 14.84375 15.5436198 15.2473958 14.8177083 15.4492187 13.984375 15.4492187ZM14.21875 4.55078125C13.9713542 4.55078125 13.7597656 4.6484375 13.5839844 4.84375 13.4082031 5.0390625 13.2617188 5.29622396 13.1445313 5.61523437 13.0273438 5.93424479 12.9427083 6.29231771 12.890625 6.68945312 12.8385417 7.08658854 12.8125 7.48697917 12.8125 7.890625 12.8125 8.34635417 12.8417969 8.80208333 12.9003906 9.2578125 12.9589844 9.71354167 13.046875 10.1236979 13.1640625 10.4882812 13.28125 10.8528646 13.4277344 11.1458333 13.6035156 11.3671875 13.7792969 11.5885417 13.9908854 11.6992187 14.2382813 11.6992187 14.5247396 11.6992187 14.7526042 11.5559896 14.921875 11.2695312 15.0911458 10.9830729 15.2246094 10.6380208 15.3222656 10.234375 15.4199219 9.83072917 15.485026 9.4140625 15.5175781 8.984375 15.5501302 8.5546875 15.5664063 8.19661458 15.5664063 7.91015625 15.5664063 7.55859375 15.5436198 7.1875 15.4980469 6.796875 15.452474 6.40625 15.3776042 6.04492187 15.2734375 5.71289062 15.1692708 5.38085937 15.0325521 5.10416667 14.8632813 4.8828125 14.6940104 4.66145833 14.4791667 4.55078125 14.21875 4.55078125ZM32.03125 3.33984375C32.03125 4.12109375 31.9791667 4.89257812 31.875 5.65429687 31.7708333 6.41601562 31.6471354 7.16796875 31.5039062 7.91015625 31.4648437 8.10546875 31.40625 8.42122396 31.328125 8.85742187 31.25 9.29361979 31.155599 9.77864583 31.0449219 10.3125 30.9342448 10.8463542 30.8007812 11.3997396 30.6445312 11.9726562 30.4882812 12.5455729 30.3157552 13.0664062 30.1269531 13.5351562 29.938151 14.0039062 29.7298177 14.391276 29.5019531 14.6972656 29.2740885 15.0032552 29.0299479 15.15625 28.7695312 15.15625 28.5091146 15.15625 28.2584635 15.0260417 28.0175781 14.765625 27.7766927 14.5052083 27.5553385 14.1764323 27.3535156 13.7792969 27.1516927 13.3821615 26.9661458 12.9361979 26.796875 12.4414062 26.6276042 11.9466146 26.4811198 11.468099 26.3574219 11.0058594 26.233724 10.5436198 26.1295573 10.1204427 26.0449219 9.73632812 25.9602865 9.35221354 25.8984375 9.0625 25.859375 8.8671875 25.8072917 9.03645833 25.7259115 9.30664062 25.6152344 9.67773437 25.5045573 10.0488281 25.3645833 10.4654948 25.1953125 10.9277344 25.0260417 11.389974 24.8372396 11.8619792 24.6289062 12.34375 24.4205729 12.8255208 24.202474 13.2682292 23.9746094 13.671875 23.7467448 14.0755208 23.5091146 14.4075521 23.2617187 14.6679687 23.0143229 14.9283854 22.7669271 15.0585937 22.5195312 15.0585937 22.1940104 15.0585937 21.9075521 14.9153646 21.6601562 14.6289062 21.4127604 14.3424479 21.2044271 13.9746094 21.0351562 13.5253906 20.8658854 13.0761719 20.7226562 12.5748698 20.6054687 12.0214844 20.4882812 11.468099 20.3971354 10.921224 20.3320312 10.3808594 20.2669271 9.84049479 20.2148437 9.3359375 20.1757812 8.8671875 20.1367187 8.3984375 20.1106771 8.02734375 20.0976562 7.75390625 20.0585937 7.12890625 20.0227865 6.51692708 19.9902344 5.91796875 19.9576823 5.31901042 19.9414062 4.70703125 19.9414062 4.08203125 19.9414062 3.86067708 19.9479167 3.55794271 19.9609375 3.17382812 19.9739583 2.78971354 20.0227865 2.41210937 20.1074219 2.04101562 20.1920573 1.66992187 20.3222656 1.34440104 20.4980469 1.06445312 20.6738281.784505208 20.9309896.631510417 21.2695312.60546875 21.5559896.592447917 21.8033854.709635417 22.0117187.95703125 22.2200521 1.20442708 22.3958333 1.53320312 22.5390625 1.94335937 22.6822917 2.35351562 22.796224 2.80924479 22.8808594 3.31054687 22.9654948 3.81184896 23.030599 4.296875 23.0761719 4.765625 23.1217448 5.234375 23.1510417 5.6640625 23.1640625 6.0546875 23.1770833 6.4453125 23.1770833 6.73177083 23.1640625 6.9140625L23.1445312 7.421875C23.1835937 7.25260417 23.2519531 6.98567708 23.3496094 6.62109375 23.4472656 6.25651042 23.5677083 5.84309896 23.7109375 5.38085937 23.8541667 4.91861979 24.0071615 4.44335937 24.1699219 3.95507812 24.3326823 3.46679687 24.5052083 3.02083333 24.6875 2.6171875 24.8697917 2.21354167 25.0520833 1.87825521 25.234375 1.61132812 25.4166667 1.34440104 25.5924479 1.20442708 25.7617187 1.19140625 25.9830729 1.17838542 26.1946615 1.30859375 26.3964844 1.58203125 26.5983073 1.85546875 26.780599 2.21028646 26.9433594 2.64648437 27.1061198 3.08268229 27.2526042 3.56770833 27.3828125 4.1015625 27.5130208 4.63541667 27.6269531 5.15299479 27.7246094 5.65429687 27.8222656 6.15559896 27.8971354 6.60807292 27.9492187 7.01171875 28.0013021 7.41536458 28.0403646 7.70182292 28.0664062 7.87109375 28.0794271 7.66276042 28.1119792 7.33398437 28.1640625 6.88476562 28.2161458 6.43554687 28.2877604 5.93424479 28.3789062 5.38085937 28.4700521 4.82747396 28.5839844 4.26106771 28.7207031 3.68164062 28.8574219 3.10221354 29.0169271 2.57161458 29.1992187 2.08984375 29.3815104 1.60807292 29.5898437 1.21419271 29.8242187.908203125 30.0585937.602213542 30.3190104.44921875 30.6054687.44921875 30.9309896.44921875 31.1914062.556640625 31.3867187.771484375 31.5820312.986328125 31.7252604 1.24674479 31.8164062 1.55273437 31.9075521 1.85872396 31.9661458 2.17773437 31.9921875 2.50976562 32.0182292 2.84179687 32.03125 3.11848958 32.03125 3.33984375Z" transform="rotate(31 -9.502 33.918)"/></g></svg>