<svg xmlns="http://www.w3.org/2000/svg" width="32" height="32" viewBox="0 0 32 32"><g fill="#222" fill-rule="evenodd" transform="translate(2 1)"><path fill-rule="nonzero" d="M14,0 C15.3309859,2.56690141 17.674271,3.96141861 20.0674581,5.19625134 L20.5997077,5.46844166 C24.325729,7.36113653 28,9.04895168 28,14.34375 C28,20.4016233 23.625,27 14,27 C4.375,27 0,20.4016233 0,14.34375 C0,9.04895168 3.67427098,7.36113653 7.40029225,5.46844166 L7.93254189,5.19625134 C10.325729,3.96141861 12.6690141,2.56690141 14,0 Z M17.732861,8.85873803 C17.3787018,9.28251828 17.4351408,9.91316281 17.8589211,10.267322 C22.0322696,13.755049 22.0322696,18.2177411 17.9489258,20.9156647 C17.4881351,21.2201157 17.3613967,21.8404666 17.6658477,22.3012573 C17.9702987,22.7620479 18.5906496,22.8887863 19.0514403,22.5843353 C24.3014298,19.1155922 24.3014298,13.044951 19.141445,8.73267798 C18.7176648,8.37851877 18.0870202,8.43495778 17.732861,8.85873803 Z M11.2674679,8.85873803 C10.9133087,8.43495778 10.2826642,8.37851877 9.85888394,8.73267798 C4.69889912,13.044951 4.69889912,19.1155922 9.94888865,22.5843353 C10.4096793,22.8887863 11.0300303,22.7620479 11.3344812,22.3012573 C11.6389322,21.8404666 11.5121939,21.2201157 11.0514032,20.9156647 C6.96805937,18.2177411 6.96805937,13.755049 11.1414079,10.267322 C11.5651881,9.91316281 11.6216271,9.28251828 11.2674679,8.85873803 Z" transform="matrix(-1 0 0 1 28 0)"/><polygon points="17.333 25 19 30 15.428 27.857 14 30 12.572 27.857 9 30 10.667 25"/></g></svg>