<svg xmlns="http://www.w3.org/2000/svg" width="16" height="16" viewBox="0 0 16 16"><path fill="#FFF" fill-rule="evenodd" d="M8,1 C11.8659932,1 15,4.13400675 15,8 C15,12 12,8 10,10 C8,12 12,15 8,15 C4.13400675,15 1,11.8659932 1,8 C1,4.13400675 4.13400675,1 8,1 Z M5.5,10 C4.67157288,10 4,10.6715729 4,11.5 C4,12.3284271 4.67157288,13 5.5,13 C6.32842712,13 7,12.3284271 7,11.5 C7,10.6715729 6.32842712,10 5.5,10 Z M4.5,6 C3.67157288,6 3,6.67157288 3,7.5 C3,8.32842712 3.67157288,9 4.5,9 C5.32842712,9 6,8.32842712 6,7.5 C6,6.67157288 5.32842712,6 4.5,6 Z M11.5,5 C10.6715729,5 10,5.67157288 10,6.5 C10,7.32842712 10.6715729,8 11.5,8 C12.3284271,8 13,7.32842712 13,6.5 C13,5.67157288 12.3284271,5 11.5,5 Z M7.5,3 C6.67157288,3 6,3.67157288 6,4.5 C6,5.32842712 6.67157288,6 7.5,6 C8.32842712,6 9,5.32842712 9,4.5 C9,3.67157288 8.32842712,3 7.5,3 Z"/></svg>