<svg xmlns="http://www.w3.org/2000/svg" xmlns:xlink="http://www.w3.org/1999/xlink" width="50" height="50" viewBox="0 0 50 50"><defs><rect id="a" width="48" height="30" x="1" y="1" rx="1"/></defs><g fill="none" fill-rule="evenodd"><rect width="15" height="16" x="1" y="33" fill="#BF3826" rx="1"/><rect width="15" height="16" x="34" y="33" fill="#087DCB" rx="1"/><rect width="14" height="16" x="18" y="33" fill="#95BC24" rx="1"/><mask id="b" fill="#fff"><use xlink:href="#a"/></mask><use xlink:href="#a" fill="#F6DE4E"/><g mask="url(#b)"><g transform="translate(4.1 -6)"><path fill="#31A2F2" d="M21.5371863,11.6895755 C22.3244977,11.9318916 23.5646634,11.8938857 24.3648167,11.6053041 L25.4375992,11.1600675 C25.7056154,11.0423855 26.0379094,11.2167829 26.0199077,11.5972047 C25.963558,12.7880211 25.3730651,13.8330677 23.9049132,14.77223 C24.0452944,15.3860176 24.6092787,19.3419997 25.2328028,23.8478785 C26.865672,23.032212 28.8613936,21.9413327 29.7796934,21.0737316 C30.7338649,20.172239 32.1511656,18.5823328 33.2054622,17.3675502 L33.2160506,17.3558823 C33.3771419,17.7002967 33.5724284,18.0333007 33.8023848,18.3499339 L33.9813602,18.5842617 L34.3505909,19.0442869 C34.8857027,19.7109836 35.5590494,20.2752756 36.3160319,20.7234341 C36.2297,20.8229291 36.1408054,20.9243355 36.0512605,21.0263122 L35.6834104,21.4442452 L35.311062,21.8651488 L35.311062,21.8651488 L34.7499981,22.4947738 C33.7543305,23.6066999 32.7825203,24.6613226 32.064454,25.3738804 C31.4032347,26.0300274 30.54563,26.7719071 29.6602903,27.4952251 L29.2503168,27.8273665 C28.0770619,28.7702326 26.9006976,29.6529421 26.1077396,30.2364713 C26.5632206,33.5820039 26.9545963,36.4937991 27.1234597,37.7526228 L27.1577236,38.0081333 C27.1931331,38.272278 27.2122883,38.4154751 27.2122883,38.4154751 L6.38159721,38.4169554 C6.36296035,38.6143787 6.34624575,38.8086934 6.33143367,39 C5.64179494,38.8280538 4.68078486,38.7091733 3.71555436,38.627183 L3.23382423,38.5891872 C1.71506487,38.4781278 0.297347283,38.4527918 0.0410814339,38.4489732 L2.99678305e-15,38.4484077 L2.99678305e-15,38.4484077 L0.0186982523,38.3857168 C0.16262208,37.9050097 1.11972866,34.740737 2.27465005,31.7059471 L2.47445953,31.1874907 C2.84390849,30.2412372 3.22942338,29.3236512 3.61190089,28.5220601 C4.41881696,26.8309366 5.16247047,25.7023284 6.31204267,25.6574935 L7.19036817,13.9958556 C7.24231752,13.3060415 7.87948774,12.5296772 8.41507188,12.2207642 C8.95065601,11.9118512 10.8504421,10.8504421 14.885737,10.7982858 C18.9210319,10.7461296 21.5371863,11.6895755 21.5371863,11.6895755 Z"/><path fill="#96BC24" d="M6.71694037,17.0058673 C8.70791006,16.2769109 11.108786,15.1974603 16.5340071,15.1974603 C21.9592281,15.1974603 22.714538,16.202665 24.5426667,17.0058673 C25.1074445,17.2540067 25.3176983,18.1684147 25.834386,21.6560568 C25.9124387,22.1829123 25.8012025,22.6894322 25.3176983,22.6894322 C24.8010106,22.6894322 21.8300562,21.6560568 16.5340071,21.6560568 C11.2379579,21.6560568 7.26542188,22.9477761 6.45859651,22.9477761 C6.05518383,22.9477761 5.63543459,22.4407119 5.68356493,21.9144006 C5.92561254,19.2675802 5.58738486,17.419433 6.71694037,17.0058673 Z"/><path fill="#000" d="M13.8414304,23.9611496 C13.8414304,23.9611496 15.1131158,25.5312147 17.4382106,25.5312147 C19.7633053,25.5312147 20.7729487,23.9611496 20.7729487,23.9611496 C20.7729487,23.9611496 20.1508211,26.693762 17.4382106,26.693762 C14.7256,26.693762 13.8414304,23.9611496 13.8414304,23.9611496 Z"/><ellipse cx="14.395" cy="18.536" fill="#000" rx="1" ry="1.658"/><ellipse cx="19.707" cy="18.536" fill="#000" rx="1" ry="1.658"/><g transform="rotate(-14 25.2 -98.882)"><path fill="#7A5226" d="M8.3399055,20.8478644 C9.96413342,27.3826711 9.3028784,27.7876942 9.3028784,27.7876942 C9.15984624,29.4574303 8.07348187,29.8589117 7.00823338,28.5656047 C7.00823338,28.5656047 5.57967551,28.0113136 3.72019132,22.0032808 C1.86070712,15.9952479 6.71567759,14.3130576 8.3399055,20.8478644 Z" transform="rotate(14 6.34 23.737)"/><path fill="#31A2F2" d="M1.73663613,15.3553 C2.12805693,14.9696979 2.87195108,14.5290345 3.40150098,14.3700506 L5.7846917,13.6545583 C7.36808408,13.1791851 9.4762657,13.8417692 10.3962731,15.2353097 C10.3962731,15.2353097 10.9003184,15.3518168 11.5030244,17.7752111 C12.1057303,20.1986054 11.7088676,20.4088843 11.7088676,20.4088843 C11.4729311,22.0435069 9.97995722,23.6939957 8.3661792,24.0973632 L7.35311232,24.3505816 C6.283454,24.6179452 4.60315281,24.4583512 3.70459719,23.8218882 C3.70459719,23.8218882 3.91097374,24.25213 3.58369993,23.6547281 C3.18734515,22.9312267 3.39129763,22.1166732 3.29167747,21.8036282 C3.19994297,21.515363 2.47275874,20.4574885 2.23822116,20.0129687 C1.8907281,19.354364 2.13340948,18.8957759 2.0292167,18.5831856 C1.92502392,18.2705954 1.54558857,17.8173982 1.38792428,17.1834527 C0.986120323,15.5678565 1.73663613,15.3553 1.73663613,15.3553 Z" transform="rotate(14 6.53 18.814)"/><path fill="#FFF" d="M4.67137963,10.6260685 L6.52305364,10.0460291 C6.52305364,10.0460291 7.95898475,11.4860211 8.6957949,13.6660258 C8.21007776,14.7368928 6.05512186,15.3022687 4.94885497,14.7381584 C4.25077811,12.7917412 4.67137963,10.6260685 4.67137963,10.6260685 Z" transform="rotate(14 6.605 12.503)"/><path fill="#31A2F2" d="M3.4880735,17.1203763 C4.70046732,16.8156405 5.43518518,14.6814645 5.25361532,13.9473004 C5.07204547,13.2131364 2.75981655,12.702594 2.21100825,12.8405373 C1.66219995,12.9784806 0.653318909,14.7916668 0.780417807,15.3055816 C0.907516705,15.8194964 2.27567968,17.4251122 3.4880735,17.1203763 Z" transform="rotate(14 3.025 14.988)"/><path fill="#7A5226" d="M7.33856635,11.6341155 C9.17486654,11.1778459 10.3426344,9.52554867 9.8567794,7.58360179 C9.12341342,4.65236122 5.87796597,4.91390883 5.86175647,1.02610942 C2.90965542,2.46015327 2.61618783,6.5805719 3.20288061,8.92556436 C3.7895734,11.2705568 5.50226615,12.090385 7.33856635,11.6341155 Z" transform="rotate(14 6.461 6.39)"/><path fill="#FFF" d="M5.52588217,1.01045774 C6.02925461,0.666845038 6.30923548,0.784572674 6.31355521,1.09140414 C6.33124371,4.97741158 9.5922403,3.78657385 10.3254187,6.71674308 C10.4900434,7.37467055 10.2447586,7.56137278 9.77715526,7.53841914 C9.45026919,7.52237301 9.39845376,8.48237693 8.91836268,8.35077542 C8.53174295,8.24479607 7.73250938,7.05181492 7.32156454,6.97551602 C6.81897763,6.88220222 6.69988423,8.20547046 6.27220046,8.3117251 C5.65531773,8.46498472 4.79786345,7.61203297 4.40906082,8.12728665 C4.32565289,8.23782151 4.29354838,8.49223908 4.27308736,8.76756998 L4.25158477,9.10013543 C4.23409295,9.37252191 4.21238064,9.61663399 4.14678789,9.70950231 C3.70153815,10.3399012 3.13211999,9.78616682 2.84463725,8.63723355 C2.29847534,6.45448139 2.62216313,2.99259789 5.52588217,1.01045774 Z M6.29915919,8.62229262 C6.44609898,8.5857866 6.89948624,8.91600931 6.9720884,9.20616601 C7.04469057,9.4963227 6.89134379,9.54950261 6.74440399,9.58600863 C6.5974642,9.62251466 6.33207085,9.66149155 6.25946868,9.37133486 C6.18686652,9.08117816 6.15221939,8.65879865 6.29915919,8.62229262 Z" transform="rotate(14 6.5 5.388)"/></g><path fill="#96BC24" d="M5.94699958,17.8393562 C7.14835952,17.8393562 8.60564408,19.0750014 8.60564408,20.2961821 C8.60564408,21.5173628 7.30948949,22.8349022 6.10812955,22.8349022 C5.93907371,22.8349022 5.77771293,22.8219287 5.62522917,22.7943842 C5.35836401,23.7285678 4.94693042,24.6491839 4.74384769,25.0496968 C3.74204876,27.025411 3.48764212,27.0812778 2.77829979,26.8061803 C2.06895746,26.5310828 1.69270437,24.1307513 2.36693273,22.9699829 C2.68715416,22.4186817 3.43753347,21.6601181 4.16110907,21.1431471 C4.12837006,20.9595886 4.10733762,20.7569886 4.09861077,20.535744 L3.99045103,20.5457233 L3.99045103,20.5457233 L3.78391345,20.5619294 C1.49119939,20.7138447 1.07626578,22.0361612 0.292681783,20.7572912 C-0.490902211,19.4784212 0.522538377,18.6343504 1.91412068,18.3904539 C2.76035317,18.2421384 3.80859141,18.2515123 4.52514017,18.4221173 C4.83566262,17.9978318 5.31534626,17.8393562 5.94699958,17.8393562 Z"/></g></g></g></svg>