<svg xmlns="http://www.w3.org/2000/svg" width="30" height="30" viewBox="0 0 30 30">
  <path fill="#222" d="M24,31 L24,29.5 C22.113716,29.5 21,29 20.5,28.5 C20,28 20,27.5 20,26 C20,25 20,17.3333333 20,3 C22,3 24.838049,2.87861272 26,3.5 C28.0673673,4.62716763 29.0623821,6.80635838 29.5,10 L31,10 L30.9547292,1 L1.04527082,1 L1,10 L2.5,10 C2.78671517,6.83526012 3.78172999,4.65606936 6,3.5 C7.20722177,2.87861272 10,3 12,3 L12,26 C12,27.5 12,28 11.5,28.5 C11,29 9.81083266,29.5 8,29.5 L8,31 L24,31 Z" transform="translate(-1 -1)"/>
</svg>
